<?xml version="1.0" encoding="UTF-8"?>
<svg xmlns="http://www.w3.org/2000/svg" viewBox="0 0 512 512" width="512" height="512">
  <path fill="black" d="M480,244.3L271.4,43c-8.9-8.5-21.9-8.5-30.8,0L32,244.3c-7.4,7.1-8,18.7-1.4,26.5c6.6,7.8,18,8.4,25.4,1.3L80,248.6V432 c0,22.1,17.9,40,40,40h80V332h112v140h80c22.1,0,40-17.9,40-40V248.6l23.1,23.5c3.6,3.6,8.4,5.5,13.2,5.5c4.4,0,8.7-1.6,12.2-4.8 C488,265.7,487.3,251.4,480,244.3z M392,432H312V312c0-11-9-20-20-20H220c-11,0-20,9-20,20v120h-80V214.2L256,85.1l136,129.1V432z"/>
</svg>