<?xml version="1.0" encoding="UTF-8"?>
<svg xmlns="http://www.w3.org/2000/svg" viewBox="0 0 512 512" width="512" height="512">
  <path fill="black" d="M380,140H40c-22.1,0-40,17.9-40,40v152c0,22.1,17.9,40,40,40h340c22.1,0,40-17.9,40-40V180C420,157.9,402.1,140,380,140z M380,332H40V180h340V332z"/>
  
  <path fill="black" d="M440,210v92c11,0,20-9,20-20v-52C460,219,451,210,440,210z"/>
  
  <rect fill="black" x="60" y="200" width="45" height="112"/>
  <rect fill="black" x="120" y="200" width="45" height="112"/>
  <rect fill="black" x="180" y="200" width="45" height="112"/>
  
  <rect fill="black" x="270" y="248" width="80" height="16"/>
</svg>