<?xml version="1.0" encoding="UTF-8"?>
<svg xmlns="http://www.w3.org/2000/svg" viewBox="0 0 512 512" width="512" height="512">
  <path fill="black" d="M312,120c-77.3,0-140,26.9-140,60s62.7,60,140,60s140-26.9,140-60S389.3,120,312,120z M312,212 c-58.4,0-108-18.4-108-32s49.6-32,108-32s108,18.4,108,32S370.4,212,312,212z"/>
  <path fill="black" d="M172,185v40c0,33.1,62.7,60,140,60s140-26.9,140-60v-40c0,13.6-49.6,32-108,32S204,198.6,172,185z"/>
  <path fill="black" d="M172,255v40c0,33.1,62.7,60,140,60s140-26.9,140-60v-40c0,13.6-49.6,32-108,32S204,268.6,172,255z"/>

  <path fill="black" d="M200,240c-77.3,0-140,26.9-140,60s62.7,60,140,60s140-26.9,140-60S277.3,240,200,240z M200,332 c-58.4,0-108-18.4-108-32s49.6-32,108-32s108,18.4,108,32S258.4,332,200,332z"/>
  <path fill="black" d="M60,305v40c0,33.1,62.7,60,140,60s140-26.9,140-60v-40c0,13.6-49.6,32-108,32S92,318.6,60,305z"/>
  <path fill="black" d="M60,375v40c0,33.1,62.7,60,140,60s140-26.9,140-60v-40c0,13.6-49.6,32-108,32S92,388.6,60,375z"/>
</svg>